<svg width="103" height="103" viewBox="0 0 103 103" fill="none" xmlns="http://www.w3.org/2000/svg">
<path d="M38.4328 67.181C38.2314 67.181 38.0308 67.1694 37.8319 67.1456C36.029 66.9304 34.5944 65.8187 33.7923 64.0158C33.4491 63.2441 33.7965 62.3402 34.5682 61.9972C35.3395 61.6544 36.2436 62.0015 36.587 62.773C36.9435 63.5746 37.4842 64.0242 38.1946 64.1087C39.0288 64.2077 40.0178 63.7857 40.5435 63.1029C41.0257 62.4768 41.1999 61.5979 40.9983 60.8093C40.8696 60.3058 40.5294 59.6232 39.6398 59.2323C36.99 58.0673 33.9718 59.1836 30.4768 60.4754C24.1469 62.8158 16.2686 65.7286 7.50991 55.3145L3.88257 51.0015C3.15191 50.1331 2.80428 49.0319 2.90326 47.9011C3.00223 46.7705 3.53635 45.7467 4.40662 45.0185C6.76738 43.0429 9.94913 42.3497 12.9176 43.1647L14.6984 43.6535C15.6455 43.9132 16.6598 43.6913 17.4116 43.0588L22.2432 38.995C22.8896 38.4518 23.8542 38.5347 24.3978 39.181C24.9413 39.8274 24.858 40.7918 24.2119 41.3356L19.3801 45.3995C17.8586 46.6789 15.8059 47.1282 13.8887 46.6025L12.1081 46.1136C10.1066 45.5642 7.96134 46.0316 6.36926 47.3637C6.12645 47.5669 5.97758 47.8524 5.95002 48.1678C5.92226 48.4833 6.01922 48.7905 6.22301 49.0329L9.85035 53.3458C17.2247 62.1137 23.1465 59.9244 29.416 57.6066C33.1882 56.2119 37.0887 54.7697 40.8704 56.432C42.4437 57.1236 43.5415 58.4091 43.9612 60.0517C44.3967 61.756 44.025 63.5939 42.9664 64.9688C41.9135 66.3365 40.1498 67.181 38.4328 67.181Z" fill="#FF901D"/>
<path d="M67.0889 43.0328C66.2856 43.033 65.4791 42.8671 64.7305 42.5331C63.1821 41.8423 62.1 40.5437 61.6836 38.8764C60.6823 34.869 62.7612 31.267 64.7718 27.7839C68.1132 21.995 71.2692 16.5267 63.8695 7.78014L60.2295 3.47766C60.0249 3.23605 59.7386 3.0888 59.423 3.06284C59.1077 3.03589 58.8008 3.13547 58.5598 3.34066C56.9785 4.6851 56.1563 6.72117 56.3605 8.78681L56.5422 10.6243C56.7375 12.6027 55.9483 14.5504 54.4307 15.8343L49.6108 19.9121C48.966 20.458 48.0012 20.3772 47.4556 19.7322C46.91 19.0875 46.9905 18.1226 47.6353 17.5772L52.4552 13.4995C53.2051 12.8652 53.595 11.9028 53.4984 10.9251L53.3168 9.08756C53.014 6.02411 54.2333 3.00491 56.5784 1.01068C57.443 0.275597 58.5424 -0.0786681 59.6732 0.014676C60.8044 0.107618 61.831 0.635897 62.5641 1.50235L66.2041 5.80503C74.9929 16.1934 70.7941 23.4678 67.4204 29.3131C65.5577 32.5401 63.9492 35.3273 64.6507 38.1355C64.886 39.0782 65.5016 39.5286 65.9764 39.7402C66.7199 40.072 67.6155 40.0482 68.314 39.6785C69.0755 39.2755 69.6589 38.3731 69.7013 37.5328C69.7373 36.8186 69.3855 36.2097 68.6554 35.723C67.9527 35.2545 67.7626 34.3052 68.2309 33.6025C68.6993 32.8998 69.6488 32.7099 70.3515 33.178C71.9937 34.2724 72.8474 35.8739 72.7559 37.6873C72.6595 39.5926 71.4497 41.4794 69.745 42.3816C68.926 42.8148 68.0094 43.0328 67.0889 43.0328Z" fill="#FF901D"/>
<path d="M69.4664 92.6679L59.847 93.3592L50.8 102.648C50.5807 102.873 50.2796 103 49.9652 103H17.7184C16.6055 103 16.1259 101.589 17.008 100.911L46.537 78.2058L56.0313 62.3806C57.6228 59.7279 61.3024 59.3185 63.4381 61.5564L81.2533 75.2045C83.946 77.2674 84.1128 81.2655 81.6014 83.5456L74.1133 90.3432C72.8089 91.5434 71.1951 92.3505 69.4664 92.6679Z" fill="#FED9A8"/>
<path d="M81.2533 75.2045L76.8977 71.8677C77.3661 73.7332 76.84 75.8101 75.2811 77.2253L67.7931 84.0229C66.4886 85.2229 64.8748 86.03 63.146 86.3475L53.5265 87.0387L37.9805 103H49.9649C50.2794 103 50.5803 102.873 50.7998 102.648L59.8469 93.359L69.4664 92.6677C71.1953 92.3503 72.8089 91.5432 74.1135 90.3432L81.6015 83.5456C84.113 81.2655 83.9462 77.2674 81.2533 75.2045Z" fill="#F4C28C"/>
<path d="M67.6953 67.4379L69.493 69.3715C68.4809 69.4796 67.4438 69.136 66.71 68.3466L65.0742 66.5871C66.0145 66.4141 67.0085 66.6992 67.6953 67.4379Z" fill="#E8D06B"/>
<path d="M90.8526 83.9865L79.4312 93.5923L49.3203 52.4093L55.2479 47.4238L90.8526 83.9865Z" fill="#F7BC14"/>
<path d="M13.0781 35.5573L22.9185 47.2573C29.8966 55.5543 40.89 59.6312 52.5341 58.2401L59.4384 57.4153L61.4344 50.7545C64.8006 39.521 62.6684 27.9916 55.6901 19.6946L45.8498 7.99463L13.0781 35.5573Z" fill="#FED130"/>
<path d="M55.6905 19.6951L45.8501 7.99512L38.8203 13.9076L49.1956 26.19C56.1737 34.4869 58.3061 46.0163 54.9399 57.2498L54.7212 57.9793L59.4387 57.4158L61.4347 50.755C64.8008 39.5217 62.6685 27.9923 55.6905 19.6951Z" fill="#F7BC14"/>
<path d="M48.9458 9.23346L13.7657 38.8215C13.2533 39.2524 12.4885 39.1865 12.0576 38.6741L9.8314 36.027C9.40049 35.5147 9.46647 34.7498 9.97886 34.3189L45.1589 4.73082C45.6713 4.2999 46.4362 4.36589 46.8671 4.87827L49.0933 7.5253C49.5244 8.03769 49.4584 8.80235 48.9458 9.23346Z" fill="#FFB125"/>
<path d="M49.0947 7.5253L46.8685 4.87827C46.4376 4.36589 45.6727 4.2999 45.1603 4.73081L38.9453 9.95788L42.7322 14.4605L48.9472 9.23346C49.4598 8.80235 49.5258 8.03769 49.0947 7.5253Z" fill="#FF901D"/>
<path d="M38.0401 31.6019L44.3364 34.3614C44.417 34.3968 44.5102 34.3902 44.585 34.3437L50.4277 30.7214C50.6164 30.6045 50.8572 30.7546 50.8353 30.9755L50.1565 37.8164C50.1478 37.9041 50.1829 37.9906 50.25 38.0473L55.5005 42.4846C55.67 42.6278 55.6016 42.9034 55.3848 42.9509L48.669 44.4193C48.5829 44.4382 48.5115 44.4981 48.4783 44.5798L45.8806 50.9445C45.7967 51.1501 45.5134 51.1702 45.4014 50.9785L41.9295 45.0451C41.8851 44.9691 41.8058 44.9198 41.7179 44.9133L34.8619 44.4096C34.6405 44.3933 34.5338 44.1302 34.6815 43.9644L39.2515 38.8291C39.3101 38.7633 39.3326 38.6728 39.3115 38.5871L37.6719 31.9109C37.6194 31.6957 37.8367 31.5128 38.0401 31.6019Z" fill="white"/>
<path d="M99.4022 83.1611L77.9485 101.205C77.0173 101.988 75.6073 101.76 74.97 100.724L71.4241 94.9566C70.9073 94.1163 71.0837 93.0241 71.8387 92.3892L91.7643 75.631C92.5193 74.9961 93.6253 75.0093 94.3648 75.6626L99.4388 80.1445C100.351 80.9498 100.334 82.3777 99.4022 83.1611Z" fill="#FFB125"/>
<path d="M99.4413 80.1439L94.3674 75.662C93.6281 75.009 92.5218 74.9955 91.7668 75.6304L85.9531 80.5201L94.0455 87.6682L99.4047 83.1609C100.336 82.3775 100.353 80.9496 99.4413 80.1439Z" fill="#FF901D"/>
<path d="M77.7008 83.2286C79.1539 84.7939 81.6009 84.8844 83.1656 83.4308L88.0055 78.9346C89.5694 77.4817 89.6599 75.0362 88.2074 73.4717C86.7544 71.9064 84.3073 71.8159 82.7426 73.2695L77.9028 77.7657C76.3388 79.2186 76.2483 81.6641 77.7008 83.2286Z" fill="#F4C28C"/>
<path d="M77.9028 77.7657L82.7426 73.2695C84.3073 71.8159 86.7544 71.9064 88.2075 73.4717C89.05 74.3794 89.3722 75.5834 89.1898 76.7182C87.7176 75.4637 85.5067 75.4824 84.0548 76.8311L79.215 81.3273C78.5584 81.9373 78.1627 82.7224 78.0305 83.5436C77.9161 83.446 77.8054 83.3416 77.7006 83.2288C76.2483 81.6643 76.3389 79.2188 77.9028 77.7657Z" fill="#FED9A8"/>
<path d="M73.8257 76.2516C75.3007 77.8404 77.7848 77.9324 79.3731 76.4568L84.1274 72.04C85.7148 70.5652 85.8068 68.0828 84.3324 66.4947C82.8574 64.9058 80.3733 64.8139 78.785 66.2895L74.0307 70.7063C72.4433 72.1811 72.3513 74.6633 73.8257 76.2516Z" fill="#F4C28C"/>
<path d="M74.0307 70.7063L78.785 66.2895C80.3735 64.8139 82.8574 64.9058 84.3324 66.4947C85.1773 67.405 85.5068 68.6088 85.3362 69.7487C83.8419 68.4481 81.5763 68.4582 80.0923 69.8368L75.338 74.2535C74.6604 74.883 74.2562 75.6963 74.1291 76.5451C74.0241 76.4538 73.9225 76.3562 73.8257 76.2518C72.3513 74.6635 72.4433 72.1813 74.0307 70.7063Z" fill="#FED9A8"/>
<path d="M68.4585 70.5494C69.9335 72.1383 72.4176 72.2302 74.0058 70.7546L78.7601 66.3379C80.3476 64.8631 80.4395 62.3806 78.9651 60.7926C77.4901 59.2037 75.006 59.1118 73.4178 60.5874L68.6635 65.0041C67.076 66.4791 66.9843 68.9614 68.4585 70.5494Z" fill="#F4C28C"/>
<path d="M68.6636 65.0041L73.4179 60.5874C75.0064 59.1118 77.4903 59.2037 78.9653 60.7926C79.0671 60.9022 79.1606 61.0165 79.2475 61.134C78.3849 61.1945 77.5365 61.5383 76.8536 62.1728L72.0992 66.5895C70.6212 67.9625 70.4404 70.2086 71.612 71.7935C70.4681 71.8737 69.2995 71.4553 68.4586 70.5494C66.9842 68.9614 67.076 66.4791 68.6636 65.0041Z" fill="#FED9A8"/>
<path d="M63.2905 64.6339C64.7655 66.2228 67.2496 66.3147 68.8378 64.8391L73.5922 60.4224C75.1796 58.9476 75.2715 56.4651 73.7972 54.877C72.3222 53.2882 69.8381 53.1962 68.2498 54.6718L63.4955 59.0886C61.908 60.5634 61.8163 63.0458 63.2905 64.6339Z" fill="#F4C28C"/>
<path d="M63.4916 59.0886L68.2459 54.6718C69.8344 53.1962 72.3183 53.2882 73.7933 54.877C74.6374 55.7863 74.9671 56.9887 74.7977 58.1274C73.3034 56.8244 71.036 56.8336 69.5509 58.2133L64.7966 62.63C64.118 63.2605 63.7137 64.0751 63.5872 64.925C63.4831 64.8343 63.3826 64.7375 63.2866 64.6341C61.8124 63.0459 61.9041 60.5634 63.4916 59.0886Z" fill="#FED9A8"/>
<path d="M72.3712 67.6373L71.4894 68.4565C70.1023 69.7452 67.9617 69.6959 66.7071 68.3467L64.4874 65.9589C63.4009 64.7901 61.5447 64.7537 60.3505 65.8777C61.0188 76.2175 46.5352 78.2061 46.5352 78.2061L52.6912 63.0639C53.0709 61.9343 53.7277 60.9109 54.6008 60.0891L58.9729 55.9743C61.0985 53.9739 64.4021 54.0375 66.3378 56.1166L72.61 62.8534C73.8675 64.2035 73.7605 66.3466 72.3712 67.6373Z" fill="#FED9A8"/>
</svg>
